<svg width="34" height="34" viewBox="0 0 34 34" fill="none" xmlns="http://www.w3.org/2000/svg">
<path d="M18.3319 16.9999L26.1613 9.1705C26.316 8.98983 26.3969 8.75742 26.3877 8.51973C26.3785 8.28203 26.28 8.05656 26.1118 7.88836C25.9436 7.72016 25.7181 7.62162 25.4804 7.61244C25.2427 7.60326 25.0103 7.68411 24.8296 7.83883L17.0002 15.6683L9.17075 7.82939C8.9929 7.65155 8.7517 7.55164 8.50019 7.55164C8.24868 7.55164 8.00748 7.65155 7.82964 7.82939C7.65179 8.00723 7.55188 8.24844 7.55188 8.49994C7.55188 8.75145 7.65179 8.99266 7.82964 9.1705L15.6685 16.9999L7.82964 24.8294C7.73077 24.9141 7.65047 25.0182 7.59378 25.1354C7.5371 25.2526 7.50524 25.3802 7.50022 25.5103C7.49519 25.6403 7.51711 25.7701 7.56459 25.8912C7.61207 26.0124 7.68409 26.1225 7.77613 26.2146C7.86817 26.3066 7.97825 26.3786 8.09944 26.4261C8.22064 26.4736 8.35034 26.4955 8.48041 26.4905C8.61048 26.4854 8.7381 26.4536 8.85527 26.3969C8.97245 26.3402 9.07664 26.2599 9.1613 26.1611L17.0002 18.3316L24.8296 26.1611C25.0103 26.3158 25.2427 26.3966 25.4804 26.3874C25.7181 26.3783 25.9436 26.2797 26.1118 26.1115C26.28 25.9433 26.3785 25.7179 26.3877 25.4802C26.3969 25.2425 26.316 25.0101 26.1613 24.8294L18.3319 16.9999Z" fill="#2D325B"/>
</svg>
