<svg xmlns="http://www.w3.org/2000/svg" xmlns:xlink="http://www.w3.org/1999/xlink" viewBox="0 0 179.94 39.98"><defs><style>.cls-1{fill:none;}.cls-2{clip-path:url(#clip-path);}.cls-3{fill:#fff;}</style><clipPath id="clip-path" transform="translate(-4.8 -7.13)"><rect class="cls-1" width="184.61" height="59.67"/></clipPath></defs><title>Слой 1</title><g id="Слой_2" data-name="Слой 2"><g id="Слой_1-2" data-name="Слой 1"><g class="cls-2"><path class="cls-3" d="M31.32,33.61c0,7.81-5.67,13.51-13,13.51a11.46,11.46,0,0,1-9.45-4.36V46.6H4.8V7.13H8.91V24.48a11.46,11.46,0,0,1,9.45-4.36C25.65,20.12,31.32,25.82,31.32,33.61Zm-22.69,0c0,5.51,3.81,9.67,9.24,9.67s9.26-4.3,9.26-9.67S23.38,24,17.87,24,8.63,28.13,8.63,33.61Z" transform="translate(-4.8 -7.13)"/><path class="cls-3" d="M58,33.53a12.52,12.52,0,0,1-.08,1.53H37.11c.58,5.59,4.5,8.47,9.18,8.47a12,12,0,0,0,8.22-3.26l2.2,2.79a14.57,14.57,0,0,1-10.66,4.06c-7.68,0-13.13-5.45-13.13-13.49S38.4,20.12,45.8,20.12C52.84,20.12,57.94,25.63,58,33.53ZM37.17,31.74H53.83c-.52-4.85-3.7-8-8.11-8C40.92,23.77,37.82,27.06,37.17,31.74Z" transform="translate(-4.8 -7.13)"/><path class="cls-3" d="M85.13,30.51V46.6H81.05V31.85c0-4.93-2.74-7.83-7.49-7.83A7.63,7.63,0,0,0,65.62,32V46.6H61.51V20.65h4.05v3.69a10.28,10.28,0,0,1,8.74-4.22C80.72,20.12,85.13,24.24,85.13,30.51Z" transform="translate(-4.8 -7.13)"/><path class="cls-3" d="M113.94,30.51V46.6h-4.09V31.85c0-4.93-2.74-7.83-7.48-7.83a7.64,7.64,0,0,0-8,7.94V46.6H90.31V20.65h4.06v3.69a10.27,10.27,0,0,1,8.74-4.22C109.53,20.12,113.94,24.24,113.94,30.51Z" transform="translate(-4.8 -7.13)"/><path class="cls-3" d="M142.28,33.53a14.89,14.89,0,0,1-.08,1.53H121.4c.57,5.59,4.49,8.47,9.18,8.47a12,12,0,0,0,8.22-3.26L141,43.06a14.54,14.54,0,0,1-10.66,4.06c-7.67,0-13.13-5.45-13.13-13.49s5.49-13.51,12.88-13.51C137.13,20.12,142.22,25.63,142.28,33.53Zm-20.83-1.79h16.66c-.52-4.85-3.69-8-8.11-8C125.21,23.77,122.11,27.06,121.45,31.74Z" transform="translate(-4.8 -7.13)"/><path class="cls-3" d="M163.14,24.34H151.93v13.1c0,4.06,2.14,5.84,5.15,5.84a9.52,9.52,0,0,0,5.46-1.83l1.92,3.09a12.57,12.57,0,0,1-7.71,2.58c-5.59,0-8.9-3.07-8.9-9.59V24.34h-5.68V20.65h5.68V12.4h4.08v8.25h11.21Z" transform="translate(-4.8 -7.13)"/><path class="cls-3" d="M183.42,24.34H172.21v13.1c0,4.06,2.14,5.84,5.16,5.84a9.48,9.48,0,0,0,5.45-1.83l1.92,3.09a12.54,12.54,0,0,1-7.7,2.58c-5.59,0-8.91-3.07-8.91-9.59V24.34h-5.67V20.65h5.67V12.4h4.08v8.25h11.21Z" transform="translate(-4.8 -7.13)"/></g></g></g></svg>