<svg width="34" height="34" viewBox="0 0 34 34" fill="none" xmlns="http://www.w3.org/2000/svg">
<path d="M30.2229 27.3889H3.77843C3.52795 27.3889 3.28772 27.2894 3.11061 27.1123C2.93349 26.9352 2.83398 26.6949 2.83398 26.4444C2.83398 26.194 2.93349 25.9537 3.11061 25.7766C3.28772 25.5995 3.52795 25.5 3.77843 25.5H30.2229C30.4734 25.5 30.7136 25.5995 30.8907 25.7766C31.0678 25.9537 31.1673 26.194 31.1673 26.4444C31.1673 26.6949 31.0678 26.9352 30.8907 27.1123C30.7136 27.2894 30.4734 27.3889 30.2229 27.3889Z" fill="#2D325B"/>
<path d="M30.2229 17.9446H3.77843C3.52795 17.9446 3.28772 17.845 3.11061 17.6679C2.93349 17.4908 2.83398 17.2506 2.83398 17.0001C2.83398 16.7496 2.93349 16.5094 3.11061 16.3323C3.28772 16.1552 3.52795 16.0557 3.77843 16.0557H30.2229C30.4734 16.0557 30.7136 16.1552 30.8907 16.3323C31.0678 16.5094 31.1673 16.7496 31.1673 17.0001C31.1673 17.2506 31.0678 17.4908 30.8907 17.6679C30.7136 17.845 30.4734 17.9446 30.2229 17.9446Z" fill="#2D325B"/>
<path d="M30.2229 8.50022H3.77843C3.52795 8.50022 3.28772 8.40071 3.11061 8.2236C2.93349 8.04648 2.83398 7.80625 2.83398 7.55577C2.83398 7.30529 2.93349 7.06507 3.11061 6.88795C3.28772 6.71083 3.52795 6.61133 3.77843 6.61133H30.2229C30.4734 6.61133 30.7136 6.71083 30.8907 6.88795C31.0678 7.06507 31.1673 7.30529 31.1673 7.55577C31.1673 7.80625 31.0678 8.04648 30.8907 8.2236C30.7136 8.40071 30.4734 8.50022 30.2229 8.50022Z" fill="#2D325B"/>
</svg>
